<?xml version="1.0" standalone="no"?>
<!DOCTYPE svg PUBLIC "-//W3C//DTD SVG 20010904//EN"
 "http://www.w3.org/TR/2001/REC-SVG-20010904/DTD/svg10.dtd">
<svg version="1.0" xmlns="http://www.w3.org/2000/svg"
 width="225.000000pt" height="225.000000pt" viewBox="0 0 225.000000 225.000000"
 preserveAspectRatio="xMidYMid meet">
<metadata>
Created by potrace 1.11, written by Peter Selinger 2001-2013
</metadata>
<g transform="translate(0.000000,225.000000) scale(0.100000,-0.100000)"
fill="#000000" stroke="none">
<path d="M1195 2221 c-88 -50 -165 -154 -165 -221 0 -23 14 -47 55 -95 30 -35
61 -77 69 -92 l14 -28 -106 -75 c-101 -72 -113 -84 -298 -315 l-192 -240 -51
-230 -51 -230 140 -140 c136 -136 140 -141 140 -183 0 -29 -5 -44 -15 -48 -29
-12 -38 -43 -20 -71 10 -14 12 -23 7 -19 -6 3 -34 0 -64 -8 -52 -13 -161 -28
-302 -41 -88 -9 -116 -32 -116 -99 l0 -44 53 -12 c132 -29 873 -29 1005 0 60
13 68 24 55 76 -13 57 -42 72 -168 84 -60 6 -150 18 -200 28 -49 9 -95 16
-101 16 -8 -1 -8 7 0 28 10 27 8 32 -16 53 -19 17 -28 34 -28 55 0 29 10 37
145 126 104 67 145 100 145 114 0 11 -55 73 -136 153 l-137 133 132 176 c99
132 131 182 131 204 0 16 -11 96 -25 179 -13 82 -23 150 -22 150 1 1 26 18 55
38 28 20 54 37 56 37 2 0 5 -42 8 -92 3 -78 9 -104 34 -158 36 -76 75 -125
117 -147 77 -39 245 19 382 134 183 154 300 357 281 488 -9 60 -66 124 -143
162 -48 23 -72 27 -188 33 -153 8 -201 25 -297 103 -71 58 -108 61 -183 18z
m118 -48 c-7 -2 -19 -2 -25 0 -7 3 -2 5 12 5 14 0 19 -2 13 -5z m53 -35 l29
-33 -32 29 c-18 17 -33 31 -33 33 0 8 8 1 36 -29z m-114 -23 c3 -13 1 -22 -3
-19 -9 5 -13 44 -5 44 2 0 6 -11 8 -25z m-79 -82 c-7 -2 -19 -2 -25 0 -7 3 -2
5 12 5 14 0 19 -2 13 -5z m162 -11 c-3 -3 -11 0 -18 7 -9 10 -8 11 6 5 10 -3
15 -9 12 -12z m-228 -54 c-3 -7 -5 -2 -5 12 0 14 2 19 5 13 2 -7 2 -19 0 -25z
m813 -55 c3 -2 4 -25 3 -51 -2 -61 -66 -187 -137 -273 -99 -119 -254 -221
-357 -235 -85 -12 -99 43 -44 163 80 176 288 365 442 402 35 9 82 6 93 -6z
m-909 -520 l18 -118 -40 -52 -40 -53 -120 0 c-114 0 -119 1 -107 18 51 70 263
331 266 327 3 -3 13 -57 23 -122z m-338 -288 c-3 -9 -8 -14 -10 -11 -3 3 -2 9
2 15 9 16 15 13 8 -4z m177 -67 c-17 -24 -44 -59 -58 -80 -26 -35 -123 -93
-136 -81 -3 4 -6 51 -6 105 l0 98 116 0 116 0 -32 -42z m90 -361 c0 -4 -33
-48 -73 -96 l-74 -89 -101 101 -102 101 103 67 102 67 73 -71 c39 -40 72 -75
72 -80z m-107 -454 c-18 -2 -48 -2 -65 0 -18 2 -4 4 32 4 36 0 50 -2 33 -4z"/>
</g>
</svg>
